<?xml version="1.0" encoding="utf-8"?>
<!-- Generator: Adobe Illustrator 12.0.0, SVG Export Plug-In . SVG Version: 6.00 Build 51448)  -->
<!DOCTYPE svg PUBLIC "-//W3C//DTD SVG 1.1//EN" "http://www.w3.org/Graphics/SVG/1.1/DTD/svg11.dtd">
<svg  version="1.1" id="Ebene_1" xmlns="http://www.w3.org/2000/svg" xmlns:xlink="http://www.w3.org/1999/xlink" width="90.234" height="136.925"
	 viewBox="0 0 90.234 136.925" overflow="visible" enable-background="new 0 0 90.234 136.925" xml:space="preserve">
<path fill="#FFFFFF" d="M78.988,81.419c-0.399,0-0.775,0.321-1.044,0.711c-0.283-0.353-0.659-0.638-1.039-0.638
	c-0.213,0-0.428,0.089-0.629,0.306c-0.797,0.86,0.888,2.253,1.778,3.069c0.797-0.857,2.42-2.352,1.529-3.186
	C79.387,81.497,79.185,81.419,78.988,81.419"/>
<path fill="#FBBF47" d="M10.115,121.693c2.001,3.552,3.099,6.703,1.104,10.583c-0.642,1.237-2.446,1.762-1.794,3.342
	c0.657,1.549,4.087,1.301,5.279,1.28c7.277-0.16,1.849-5.604,1.316-9.295c-0.297-2.044-0.959-4.179,0.533-5.655L10.115,121.693z"/>
<path fill="#D84C59" d="M0.461,120.21c-1.282,2.111,0.259,4.103,2.742,4.103h21.298c2.483,0,4.026-1.991,2.746-4.103
	c-2.746-4.551-7.696-7.601-13.394-7.601C8.156,112.609,3.204,115.659,0.461,120.21"/>
<path fill="#FFFFFF" d="M21.51,118.098c0,0.715-1.026,1.302-2.289,1.302c-1.27,0-2.296-0.587-2.296-1.302
	c0-0.729,1.026-1.311,2.296-1.311C20.484,116.787,21.51,117.369,21.51,118.098"/>
<path fill="#FFFFFF" d="M11.793,120.821c0,0.857-1.216,1.556-2.721,1.556c-1.508,0-2.724-0.698-2.724-1.556
	c0-0.861,1.216-1.56,2.724-1.56C10.577,119.262,11.793,119.96,11.793,120.821"/>
<path fill="#FFFFFF" d="M14.094,115.894c0,0.544-0.779,0.994-1.748,0.994c-0.969,0-1.748-0.45-1.748-0.994
	c0-0.555,0.779-0.997,1.748-0.997C13.315,114.896,14.094,115.339,14.094,115.894"/>
<rect x="56.371" y="102.576" fill="#D01C33" width="7.284" height="26.059"/>
<rect x="56.371" y="102.576" fill="#00895C" width="7.284" height="2.879"/>
<rect x="56.371" y="107.59" fill="#00895C" width="7.284" height="2.879"/>
<rect x="56.371" y="112.603" fill="#00895C" width="7.284" height="2.88"/>
<rect x="56.371" y="117.616" fill="#009A5F" width="7.284" height="2.879"/>
<rect x="56.371" y="122.63" fill="#00895C" width="7.284" height="2.879"/>
<path fill="#171715" d="M57.329,124.552c0,0,1.037-2.308,2.603-2.566v-0.027l0.142,0.015l0.143-0.015v0.027
	c1.567,0.259,2.604,2.566,2.604,2.566c2.008-1.386,3.716,0.777,3.716,0.777c-2.838-0.297-2.902,3.42-2.902,3.42
	s-0.397,3.494,3.226,3.494c3.621,0,4.523,0,4.523-1.635c0-2.348-2.253-3.238-3.549-0.869c0,0-0.448-2.485,1.923-3.782
	c1.319-0.722,7.109,0.45,7.109,6.645c0,0,0,3.622-5.276,3.622H59.56c-1.871,0-3.188-0.939-3.188-2.862v-4.612
	c0,0,0.08-3.717-2.759-3.42C53.612,125.329,55.32,123.166,57.329,124.552"/>
<rect x="43.569" y="102.576" fill="#D01C33" width="7.284" height="26.059"/>
<rect x="43.569" y="102.576" fill="#00895C" width="7.284" height="2.879"/>
<rect x="43.569" y="107.59" fill="#00895C" width="7.284" height="2.879"/>
<rect x="43.569" y="112.603" fill="#00895C" width="7.284" height="2.88"/>
<rect x="43.569" y="117.616" fill="#00895C" width="7.284" height="2.879"/>
<rect x="43.569" y="122.63" fill="#00895C" width="7.284" height="2.879"/>
<path fill="#171715" d="M49.896,124.552c0,0-1.037-2.308-2.604-2.566v-0.027l-0.142,0.015l-0.143-0.015v0.027
	c-1.566,0.259-2.604,2.566-2.604,2.566c-2.007-1.386-3.716,0.777-3.716,0.777c2.84-0.297,2.903,3.42,2.903,3.42
	s0.398,3.494-3.224,3.494s-4.525,0-4.525-1.635c0-2.348,2.253-3.238,3.55-0.869c0,0,0.446-2.485-1.923-3.782
	c-1.319-0.722-7.11,0.45-7.11,6.645c0,0,0,3.622,5.277,3.622h12.028c1.871,0,3.189-0.939,3.189-2.862v-4.612
	c0,0-0.081-3.717,2.758-3.42C53.612,125.329,51.905,123.166,49.896,124.552"/>
<path fill="#FCDFCB" d="M24.544,84.953l-4.139,4.139h-4.906c-1.483,0-1.483,1.688,0,1.688h2.223c0,0,0.69,0.307,0.154,0.537
	c-0.537,0.229-4.399,1.73-4.83,1.915c-0.78,0.337-0.685,1.755,0.766,1.304l3.987-1.533c0,0,0.535,0.077,0.23,0.46
	c0,0-3.093,2.173-3.604,2.53c-0.969,0.678-0.399,2.028,0.845,1.379l3.909-2.683c0,0,0.535-0.384,0.383,0.229
	c0,0-1.57,3.708-1.763,4.217c-0.328,0.856,0.708,1.579,1.303,0.536l2.146-4.676c0,0,0.384-0.46,0.537,0.077
	c0,0,0.593,1.77,0.767,2.223c0.381,0.993,2.055,0.917,1.532-0.537l-1.532-5.289l4.829-4.293L24.544,84.953z"/>
<path fill="#00995F" d="M37.715,72.666c0,0-18.59,16.823-23.006,15.57c0,0,1.313,1.612,4.416,1.253l-1.313,4.179l4.656-1.074
	c0,0-0.477,4.74,1.312,6.19c0,0,5.492-11.084,10.744-14.308L37.715,72.666z"/>
<path fill="#FCDFCB" d="M77.861,69.066l4.318-3.951c0,0,3.905,0.174,4.901,0.218c1.481,0.065,1.556-1.619,0.075-1.685l-2.222-0.1
	c0,0-0.675-0.337-0.129-0.542c0.546-0.206,4.471-1.534,4.91-1.7c0.795-0.3,0.762-1.721-0.708-1.336l-4.049,1.354
	c0,0-0.534-0.1-0.211-0.469c0,0,3.188-2.033,3.713-2.367c1-0.635,0.49-2.01-0.781-1.416l-4.024,2.507c0,0-0.554,0.358-0.373-0.247
	c0,0,1.731-3.635,1.95-4.133c0.363-0.842-0.64-1.609-1.279-0.594L81.6,59.182c0,0-0.401,0.441-0.531-0.102
	c0,0-0.513-1.794-0.667-2.256c-0.337-1.008-2.015-1.006-1.556,0.469l1.296,5.352l-5.017,4.074L77.861,69.066z"/>
<path fill="#00995F" d="M64.156,80.754c0,0,19.317-15.98,23.676-14.531c0,0-1.24-1.668-4.358-1.449l1.499-4.114l-4.698,0.866
	c0,0,0.688-4.715-1.035-6.242c0,0-5.979,10.828-11.37,13.814L64.156,80.754z"/>
<path fill="#00995F" d="M79.336,114.7c0-31.796-14.792-49.677-14.792-49.677l-11.186,6.235l-11.186-6.235
	c0,0-14.792,17.881-14.792,49.677c0,0,2.416-5.484,5.937-6.656c0,0-0.139,3.751,2.13,7.971c0,0,2.267-7.268,5.245-7.971
	c0,0,1.383,4.689,1.48,9.378c0,0,5.467-5.303,5.847-8.044c0,0,3.337,3.747,5.214,7.899l0.004,0.145l0.121-0.072l0.12,0.072
	l0.003-0.145c1.456-3.139,5.215-7.899,5.215-7.899c0.381,2.741,5.848,8.044,5.848,8.044c0.097-4.688,1.48-9.378,1.48-9.378
	c2.978,0.703,5.244,7.971,5.244,7.971c2.269-4.22,2.13-7.971,2.13-7.971C76.921,109.216,79.336,114.7,79.336,114.7"/>
<path fill="#C91635" d="M55.415,82.507c0,1.022-0.828,1.851-1.851,1.851c-1.021,0-1.85-0.828-1.85-1.851s0.828-1.85,1.85-1.85
	C54.587,80.657,55.415,81.484,55.415,82.507"/>
<path fill="#C91635" d="M55.415,87.521c0,1.021-0.828,1.85-1.851,1.85c-1.021,0-1.85-0.828-1.85-1.85s0.828-1.851,1.85-1.851
	C54.587,85.67,55.415,86.499,55.415,87.521"/>
<path fill="#00995F" d="M66.038,67.073c-1.629,0.144-2.244,1.331,0.188,4.876c6.141,8.96,7.173,36.095,7.173,36.095
	c3.521,1.172,5.937,6.656,5.937,6.656C79.335,89.16,69.793,72.602,66.038,67.073"/>
<path fill="#C91635" d="M76.128,70.438c-2.598,2.313-9.656-2.484-9.656-2.484l-13.189,2.013l-13.188-2.013
	c0,0-7.059,4.798-9.657,2.484c0,0,0.555,3.416,4.828,3.295c0,0-0.456,2.627-2.561,3.701c0,0,6.237,0.955,7.909-2.746
	c0,0,1.76,2.209-0.163,5.029c0,0,5.419-0.896,5.819-4.835c0,0,2.525,2.239,1.646,5.417c0,0,5.205-0.246,5.292-4.298h0.153
	c0.087,4.052,5.291,4.298,5.291,4.298c-0.879-3.178,1.646-5.417,1.646-5.417c0.4,3.938,5.82,4.835,5.82,4.835
	c-1.925-2.82-0.164-5.029-0.164-5.029c1.671,3.701,7.908,2.746,7.908,2.746c-2.104-1.074-2.561-3.701-2.561-3.701
	C75.573,73.854,76.128,70.438,76.128,70.438"/>
<path fill="#2D2B2B" d="M30.438,90.473c-0.412,1.567-0.795,3.204-1.142,4.907c25.152,6.044,48.102,0.006,48.124,0
	c-0.345-1.7-0.729-3.333-1.139-4.899C53.163,95.625,30.456,90.477,30.438,90.473"/>
<path fill="#E7424E" d="M55.828,97.459h-4.224v-4.223h4.224V97.459z M49.593,99.471h8.247v-8.248h-8.247V99.471z"/>
<path fill="#FCDFCB" d="M74.572,50.396c0,0,3.084-3.975,4.692-4.079c0,0-1.229,1.587-0.362,5.303
	c0.411,1.767,0.209,8.929-5.525,7.062L74.572,50.396z"/>
<path fill="#F4C9AD" d="M74.97,51.853c0,0,1.675-2.718,2.774-2.789c0,0-0.406,1.086,0.187,3.626c0.28,1.208,0.143,6.105-3.778,4.829
	L74.97,51.853z"/>
<path fill="#FCDFCB" d="M32.186,50.396c0,0-3.083-3.975-4.692-4.079c0,0,1.228,1.587,0.361,5.303
	c-0.41,1.767-0.209,8.929,5.525,7.062L32.186,50.396z"/>
<path fill="#F4C9AD" d="M31.789,51.853c0,0-1.675-2.718-2.776-2.789c0,0,0.407,1.086-0.185,3.626
	c-0.281,1.208-0.143,6.105,3.777,4.829L31.789,51.853z"/>
<path fill="#FCDFCB" d="M75.028,52.514c0,10.736-9.731,19.436-21.733,19.436c-12.005,0-21.736-8.699-21.736-19.436
	c0-10.737,9.731-19.438,21.736-19.438C65.297,33.075,75.028,41.776,75.028,52.514"/>
<path fill="#B0733E" d="M46.659,56.465c0,0.882-0.714,1.597-1.595,1.597c-0.882,0-1.598-0.715-1.598-1.597
	c0-0.881,0.716-1.594,1.598-1.594C45.945,54.871,46.659,55.584,46.659,56.465"/>
<path fill="#B0733E" d="M63.013,56.465c0,0.882-0.714,1.597-1.596,1.597s-1.596-0.715-1.596-1.597c0-0.881,0.714-1.594,1.596-1.594
	S63.013,55.584,63.013,56.465"/>
<path fill="#E64434" d="M47.917,64.952c-0.162,4.729,10.612,4.763,10.649,0.142c0.002-0.302-0.464-0.302-0.466,0
	c-0.033,3.981-9.859,3.973-9.719-0.142C48.392,64.652,47.928,64.653,47.917,64.952"/>
<path fill="#B43D1C" d="M59.319,51.926c1.422-1.001,3.229-1.046,4.633,0c0.278,0.209,0.549-0.261,0.271-0.468
	c-1.544-1.15-3.605-1.104-5.179,0C58.763,51.658,59.032,52.127,59.319,51.926"/>
<path fill="#B43D1C" d="M46.945,51.926c-1.423-1.001-3.23-1.046-4.632,0c-0.281,0.209-0.549-0.261-0.273-0.468
	c1.544-1.15,3.606-1.104,5.178,0C47.501,51.658,47.231,52.127,46.945,51.926"/>
<path fill="#F7CEB4" d="M57.668,61.93c0,1.746-1.986,3.162-4.438,3.162c-2.449,0-4.436-1.416-4.436-3.162
	c0-1.748,1.986-3.164,4.436-3.164C55.682,58.766,57.668,60.182,57.668,61.93"/>
<path fill="#F2D3BC" d="M75.028,52.514c0-2.895-0.712-5.639-1.981-8.106l-3.725,3.519c0,0,0.489,14.289-7.689,19.512
	c-8.174,5.22-19.61,1.695-19.622,1.691c3.289,1.789,7.151,2.82,11.284,2.82C65.297,71.949,75.028,63.25,75.028,52.514"/>
<path fill="#00995F" d="M70.982,42.17c0,0,2.419-7.801-1.022-17.027c-2.621-7.032-13.635-15.691-29.002-8.766
	c-15.897,7.166-14.175-7.358-6.384-9.631L34.357,5.34c0,0-11.578,0.974-12.77,11.254c-1.19,10.281,11.81,23.867,13.912,25.189
	L70.982,42.17z"/>
<path fill="#00995F" d="M40.958,16.377c-15.897,7.166-14.176-7.358-6.385-9.631l-0.1-0.651c-0.324,0.094-0.658,0.2-1.009,0.327
	c-6.422,2.328-8.506,10.492-4.119,13.982c4.387,3.492,11.907-0.984,20.144-1.432c8.236-0.448,14.505,3.581,16.735,8.594
	c2.233,5.014,1.451,10.051,1.451,10.051l3.72,2.707c0.501-2.844,1-8.654-1.435-15.182C67.339,18.11,56.325,9.451,40.958,16.377"/>
<path fill="#F6B818" d="M44.032,5.34c0,2.949-2.39,5.339-5.339,5.339c-2.948,0-5.337-2.39-5.337-5.339S35.745,0,38.693,0
	C41.642,0,44.032,2.391,44.032,5.34"/>
<path fill="#75540C" d="M41.254,3.175c-0.816,0-1.479,0.662-1.479,1.479l0.002,0.021l-6.396,1.185
	c0.018,0.19,0.045,0.379,0.083,0.563l6.428-1.189c0.225,0.528,0.75,0.9,1.362,0.9c0.817,0,1.479-0.662,1.479-1.479
	C42.733,3.837,42.071,3.175,41.254,3.175"/>
<path fill="#D8980F" d="M37.864,8.694c-3.246-0.108-4.399-2.272-4.399-2.272c0.5,2.43,2.651,4.256,5.228,4.256
	c2.949,0,5.339-2.39,5.339-5.338c0-0.563-0.088-1.104-0.249-1.613C43.588,6.795,41.11,8.803,37.864,8.694"/>
<path fill="#C91635" d="M67.676,37.617c0,0-2.333-8.049-6.591-8.978c0,0-4.544,4.847-7.727,7.631
	c-3.184-2.784-7.726-7.631-7.726-7.631c-4.259,0.929-6.593,8.978-6.593,8.978c-7.442-2.125-14.447,0.797-14.447,0.797
	c7.88,0.332,10.195,4.121,10.195,4.121l18.571-1.058l18.57,1.058c0,0,2.315-3.789,10.195-4.121
	C82.124,38.414,75.119,35.492,67.676,37.617"/>
<path fill="#B41135" d="M67.676,37.617l-0.003-0.017c-1.093,1.692-0.63,3.19-0.63,3.19l3.81,1.684l1.076,0.061
	c0,0,2.315-3.789,10.195-4.121C82.124,38.414,75.119,35.492,67.676,37.617"/>
<path fill="#E7424E" d="M34.966,42.17c-1.66,2.359-2.771,5.059-3.167,7.957c0.259-0.131,21.055-10.545,43.017,0.004l0.102-0.094
	c-0.396-2.787-1.448-5.39-3.018-7.679C71.867,42.344,57.714,35.647,34.966,42.17"/>
<path fill="#E0374C" d="M67.043,40.791c1.619,3.106,2.281,7.134,2.281,7.134l0.003,0.003c1.789,0.604,3.599,1.33,5.416,2.201
	l0.103-0.092c-0.396-2.787-1.447-5.39-3.019-7.679C71.816,42.354,70.147,41.563,67.043,40.791"/>
</svg>
